{"title":"The Bannen Way (2010) + bonus 21m [XviD - Italian English Ac3 5.","uid":11404780,"size":1686450084,"categoryP":"video","categoryS":"movies","magnet":"?xt=urn:btih:ca88e38ffa2c74a5bea6e581cf6500663cb396b4&amp;dn=The+Bannen+Way+%282010%29+%2B+bonus+21m+%5BXviD+-+Italian+English+Ac3+5.&amp;tr=udp%3A%2F%2Ftracker.openbittorrent.com%3A80&amp;tr=udp%3A%2F%2Fopen.demonii.com%3A1337&amp;tr=udp%3A%2F%2Ftracker.coppersurfer.tk%3A6969&amp;tr=udp%3A%2F%2Fexodus.desync.com%3A6969","seeders":4,"leechers":4,"uploader":"robbyrs4","files":6,"time":1415464284,"description":"The Bannen Way (2010) + bonus 21m [XviD - Italian English Ac3 5.1 - Ita Eng - Multisub] MIRCrew\n\n\n\n\n[center][color=red][b][img]http://s19.postimg.org/mqmhlwtlf/Mircrew_original_red_skull.png[/img]\n\n[u]NO FOUND ONLY ORIGINAL RELEASE[/u]\n\nThe Bannen Way (2010) + bonus 21m\n\n[img]http://s19.postimg.org/tg4dpmgyb/image.jpg[/img]\n\n\n[URL=http://www.imdb.com/title/tt0387564/][IMG]http://www.userlogos.org/files/logos/Sucka/imdb_new.png[/IMG][/URL]  \n\n[img]http://imageshack.us/a/img534/6946/zcu.gif[/img]\n\nGenre \tCrime/Drama\nCreated by \tJesse Warren\nMark Gantt\nDirected by \tJesse Warren\n Composer(s) \tJoseph Trapanese\nCountry of origin \tUnited States\nOriginal language(s) \tEnglish\n\n[img]http://imageshack.us/a/img4/8946/u96.gif[/img]\n\nMark Gantt\nVanessa Marcil\nGabriel Tigerman\nMichael Ironside\nRobert Forster\nMichael Lerner\nAutumn Reeser\nBrianne Davis\nBrynn Thayer\n\n[img]http://imageshack.us/a/img844/6546/cupz.gif[/img]. \n\nBelle auto, gioco d'azzardo, un debole per le donne... e qualche furtarello. Facile la vita per Neal Bannen soprattutto quando si ha per padre il capo della polizia e per zio un boss mafioso. Facile fino a quando Bannen non decide di lasciare il mondo del................\n\n[img]http://imageshack.us/a/img202/6180/4e6.gif[/img]\n\nA slick, sexy, action-packed show about Neal Bannen, a charming con-man with a police chief for a father, a mob boss for an uncle and a weakness for beautiful women, who wants to turn his ......\n &lt;a href=&quot;\nhttp://s19.postimg.org/636c740ur/vlcsnap_2014_11_08_16h02m10s95.png[/img]&quot; rel=&quot;nofollow&quot; target=&quot;_NEW&quot;&gt;\nhttp://s19.postimg.org/636c740ur/vlcsnap_2014_11_08_16h02m10s95.png[/img]&lt;/a&gt;\n &lt;a href=&quot;\nhttp://s19.postimg.org/7xj6ounv7/vlcsnap_2014_11_08_16h03m02s124.png[/img]&quot; rel=&quot;nofollow&quot; target=&quot;_NEW&quot;&gt;\nhttp://s19.postimg.org/7xj6ounv7/vlcsnap_2014_11_08_16h03m02s124.png[/img]&lt;/a&gt;\n &lt;a href=&quot;\nhttp://s19.postimg.org/fc8ih89qr/vlcsnap_2014_11_08_16h03m09s179.png[/img]&quot; rel=&quot;nofollow&quot; target=&quot;_NEW&quot;&gt;\nhttp://s19.postimg.org/fc8ih89qr/vlcsnap_2014_11_08_16h03m09s179.png[/img]&lt;/a&gt;\n\n\n\n[img]http://imageshack.us/a/img571/2166/an4p.gif[/img]\n\n\n[spoiler]\nGeneral\nComplete name                            : The Bannen Way (2010)+bonus 21m.ita.eng.multisub.MIRCrewThe Bannen Way (2010).ita.eng.multisub.MIRCrew.avi\nFormat                                   : AVI\nFormat/Info                              : Audio Video Interleave\nFile size                                : 1.36 GiB\nDuration                                 : 1h 29mn\nOverall bit rate                         : 2 182 Kbps\nWriting application                      : VirtualDubMod 1.5.4.1 (build 2178/release)\nWriting library                          : VirtualDubMod build 2178/release\n\nVideo\nID                                       : 0\nFormat                                   : MPEG-4 Visual\nFormat profile                           : Advanced Simple@L5\nFormat settings, BVOP                    : 1\nFormat settings, QPel                    : No\nFormat settings, GMC                     : No warppoints\nFormat settings, Matrix                  : Custom\nCodec ID                                 : XVID\nCodec ID/Hint                            : XviD\nDuration                                 : 1h 29mn\nBit rate                                 : 1 405 Kbps\nWidth                                    : 720 pixels\nHeight                                   : 400 pixels\nDisplay aspect ratio                     : 16:9\nFrame rate                               : 25.000 fps\nColor space                              : YUV\nChroma subsampling                       : 4:2:0\nBit depth                                : 8 bits\nScan type                                : Progressive\nCompression mode                         : Lossy\nBits/(Pixel*Frame)                       : 0.195\nStream size                              : 899 MiB (64%)\nWriting library                          : XviD 64\n\nAudio #1\nID                                       : 1\nFormat                                   : AC-3\nFormat/Info                              : Audio Coding 3\nMode extension                           : CM (complete main)\nCodec ID                                 : 2000\nDuration                                 : 1h 29mn\nBit rate mode                            : Constant\nBit rate                                 : 384 Kbps\nChannel(s)                               : 6 channels\nChannel positions                        : Front: L C R, Side: L R, LFE\nSampling rate                            : 48.0 KHz\nBit depth                                : 16 bits\nCompression mode                         : Lossy\nStream size                              : 246 MiB (18%)\nAlignment                                : Split accross interleaves\nInterleave, duration                     : 96 ms (2.40 video frames)\nInterleave, preload duration             : 96 ms\nLanguage                                 : Italian\n\nAudio #2\nID                                       : 2\nFormat                                   : AC-3\nFormat/Info                              : Audio Coding 3\nMode extension                           : CM (complete main)\nCodec ID                                 : 2000\nDuration                                 : 1h 29mn\nBit rate mode                            : Constant\nBit rate                                 : 384 Kbps\nChannel(s)                               : 6 channels\nChannel positions                        : Front: L C R, Side: L R, LFE\nSampling rate                            : 48.0 KHz\nBit depth                                : 16 bits\nCompression mode                         : Lossy\nStream size                              : 246 MiB (18%)\nAlignment                                : Split accross interleaves\nInterleave, duration                     : 96 ms (2.40 video frames)\nInterleave, preload duration             : 96 ms\nLanguage                                 : English\n\n\n\n\n[/spoiler]\n\n[/color][/b][/center]","torrent":{"xt":"urn:btih:ca88e38ffa2c74a5bea6e581cf6500663cb396b4","amp;dn":"The+Bannen+Way+%282010%29+%2B+bonus+21m+%5BXviD+-+Italian+English+Ac3+5.","amp;tr":["udp%3A%2F%2Ftracker.openbittorrent.com%3A80","udp%3A%2F%2Fopen.demonii.com%3A1337","udp%3A%2F%2Ftracker.coppersurfer.tk%3A6969","udp%3A%2F%2Fexodus.desync.com%3A6969"],"infoHash":"ca88e38ffa2c74a5bea6e581cf6500663cb396b4","infoHashBuffer":{"type":"Buffer","data":[202,136,227,143,250,44,116,165,190,166,229,129,207,101,0,102,60,179,150,180]},"announce":[],"urlList":[]}}